<svg xmlns="http://www.w3.org/2000/svg" width="600" height="400" viewBox="0 0 600 400">
  <rect width="600" height="400" fill="white"/>
  <text x="300" y="30" text-anchor="middle" font-size="16" font-weight="bold" fill="#333">未来五年净利润发展预测（单位：万元）</text>
  <line x1="80" y1="50" x2="80" y2="350" stroke="#999" stroke-width="1"/>
  <line x1="80" y1="350" x2="560" y2="350" stroke="#999" stroke-width="1"/>
  <text x="70" y="355" text-anchor="end" font-size="11" fill="#999">0</text>
  <text x="70" y="295" text-anchor="end" font-size="11" fill="#999">5</text>
  <text x="70" y="235" text-anchor="end" font-size="11" fill="#999">10</text>
  <text x="70" y="175" text-anchor="end" font-size="11" fill="#999">15</text>
  <line x1="80" y1="290" x2="560" y2="290" stroke="#f0f0f0" stroke-width="1" stroke-dasharray="4"/>
  <line x1="80" y1="230" x2="560" y2="230" stroke="#f0f0f0" stroke-width="1" stroke-dasharray="4"/>
  <line x1="80" y1="170" x2="560" y2="170" stroke="#f0f0f0" stroke-width="1" stroke-dasharray="4"/>
  <defs>
    <linearGradient id="g1" x1="0" y1="0" x2="0" y2="1"><stop offset="0%" stop-color="#409EFF"/><stop offset="100%" stop-color="#79bbff"/></linearGradient>
    <linearGradient id="g2" x1="0" y1="0" x2="0" y2="1"><stop offset="0%" stop-color="#67C23A"/><stop offset="100%" stop-color="#95d475"/></linearGradient>
  </defs>
  <rect x="105" y="344" width="55" height="6" rx="3" fill="url(#g1)"/>
  <rect x="190" y="318" width="55" height="32" rx="3" fill="url(#g1)"/>
  <rect x="275" y="294" width="55" height="56" rx="3" fill="url(#g1)"/>
  <rect x="360" y="228" width="55" height="122" rx="3" fill="url(#g1)"/>
  <rect x="445" y="69" width="55" height="281" rx="3" fill="url(#g2)"/>
  <text x="133" y="337" text-anchor="middle" font-size="12" font-weight="bold" fill="#409EFF">0.3</text>
  <text x="218" y="311" text-anchor="middle" font-size="12" font-weight="bold" fill="#409EFF">1.7</text>
  <text x="303" y="287" text-anchor="middle" font-size="12" font-weight="bold" fill="#409EFF">3.0</text>
  <text x="388" y="221" text-anchor="middle" font-size="12" font-weight="bold" fill="#409EFF">6.5</text>
  <text x="473" y="62" text-anchor="middle" font-size="14" font-weight="bold" fill="#67C23A">15.0</text>
  <text x="133" y="370" text-anchor="middle" font-size="12" fill="#666">2026</text>
  <text x="218" y="370" text-anchor="middle" font-size="12" fill="#666">2027</text>
  <text x="303" y="370" text-anchor="middle" font-size="12" fill="#666">2028</text>
  <text x="388" y="370" text-anchor="middle" font-size="12" fill="#666">2029</text>
  <text x="473" y="370" text-anchor="middle" font-size="12" fill="#666">2030</text>
</svg>